<svg version="1.1" id="Layer_1" xmlns="http://www.w3.org/2000/svg" xmlns:xlink="http://www.w3.org/1999/xlink" x="0px" y="0px"
	 width="50%" viewBox="0 0 600 600" enable-background="new 0 0 600 600" xml:space="preserve">
<path fill="#000000" opacity="1.000000" stroke="none" 
	d="
M317.000000,601.000000 
	C211.333328,601.000000 106.166664,601.000000 1.000000,601.000000 
	C1.000000,401.000000 1.000000,201.000000 1.000000,1.000000 
	C201.000000,1.000000 401.000000,1.000000 601.000000,1.000000 
	C601.000000,201.000000 601.000000,401.000000 601.000000,601.000000 
	C506.500000,601.000000 412.000000,601.000000 317.000000,601.000000 
M117.913551,53.443100 
	C107.721146,47.970924 97.175919,45.406731 85.618729,48.698307 
	C57.360523,56.746479 46.355900,91.986015 68.930420,115.448883 
	C82.843658,129.909637 96.656479,144.466965 110.529587,158.966415 
	C125.681396,174.802307 140.860733,190.611862 156.009613,206.450577 
	C170.802231,221.916870 185.524353,237.450882 200.365921,252.869965 
	C212.349594,265.319946 224.499741,277.609589 236.504868,290.039093 
	C241.342178,295.047424 245.989807,300.238922 250.636139,305.252533 
	C234.895233,321.868469 219.307251,338.389130 203.643890,354.838013 
	C188.636169,370.598358 173.548660,386.282684 158.499054,402.003174 
	C143.687653,417.474762 128.882965,432.952789 114.069550,448.422424 
	C98.797874,464.370667 83.559349,480.350922 68.221901,496.235687 
	C62.803104,501.847900 59.470646,508.222015 57.726463,515.971863 
	C54.026814,532.410339 63.302395,550.361450 75.983490,557.582336 
	C92.566658,567.025146 112.529037,563.487671 123.877907,551.613403 
	C129.946777,545.263550 135.948334,538.849304 142.014114,532.496399 
	C156.585403,517.235596 171.168793,501.986298 185.761993,486.746429 
	C201.253891,470.567963 216.718552,454.363098 232.277771,438.249573 
	C245.447418,424.610779 258.735809,411.086670 271.968231,397.508484 
	C272.660034,396.798645 273.316315,396.054382 273.995605,395.332245 
	C284.418152,384.252106 294.841797,373.172943 305.408661,361.941040 
	C315.503815,372.698578 325.183044,383.126556 334.988129,393.434814 
	C349.873077,409.083588 364.843933,424.650635 379.781006,440.249817 
	C394.811798,455.946838 409.800415,471.684631 424.892365,487.322632 
	C438.060455,500.967194 451.349213,514.495300 464.574402,528.084778 
	C465.382355,528.915039 466.054382,529.877991 466.866730,530.703308 
	C475.132141,539.101257 482.590973,548.564270 491.873688,555.629456 
	C507.790863,567.744263 531.467896,565.407654 545.365173,548.272949 
	C557.015686,533.908569 556.881226,511.312042 544.237427,497.778290 
	C532.337891,485.041321 520.293640,472.439392 508.283600,459.806000 
	C494.443085,445.247162 480.593658,430.696625 466.705383,416.183411 
	C451.450287,400.241760 436.186188,384.308380 420.852051,368.442871 
	C407.322937,354.444855 393.640472,340.594910 380.127930,326.581085 
	C373.446960,319.652252 366.996246,312.501404 360.434723,305.443909 
	C361.883667,303.544952 363.200226,301.432007 364.885040,299.671448 
	C381.638855,282.164001 398.480560,264.740662 415.242340,247.240799 
	C428.444580,233.457260 441.539459,219.570923 454.736389,205.782257 
	C471.030609,188.757507 487.404633,171.809128 503.700012,154.785431 
	C517.012268,140.878128 530.349365,126.992661 543.504150,112.937187 
	C552.285950,103.554108 555.086731,92.583855 553.228516,79.656075 
	C549.458130,53.424362 516.677429,36.930565 492.408905,54.402866 
	C484.738525,59.925228 478.631561,67.661591 471.983765,74.553200 
	C457.338989,89.735046 442.812592,105.031067 428.224487,120.267624 
	C412.825775,136.350830 397.457306,152.463409 381.989868,168.480316 
	C368.828430,182.109375 355.545593,195.621201 342.313904,209.182434 
	C341.733124,209.777695 341.103943,210.326675 340.536011,210.933472 
	C328.983490,223.276901 317.436584,235.625626 305.474762,248.415756 
	C298.789429,241.221558 292.548920,234.366318 286.156738,227.655579 
	C271.626831,212.401657 257.029205,197.212234 242.446457,182.008713 
	C225.998016,164.860077 209.568649,147.692978 193.068588,130.594116 
	C180.823639,117.904793 168.479004,105.311638 156.179153,92.675270 
	C155.714325,92.197716 155.255661,91.714188 154.790421,91.237053 
	C142.673676,78.810211 130.556412,66.383842 117.913551,53.443100 
z"/>
<path fill="#5F6368" opacity="1.000000" stroke="none" 
	d="
M118.176407,53.700249 
	C130.556412,66.383842 142.673676,78.810211 154.790421,91.237053 
	C155.255661,91.714188 155.714325,92.197716 156.179153,92.675270 
	C168.479004,105.311638 180.823639,117.904793 193.068588,130.594116 
	C209.568649,147.692978 225.998016,164.860077 242.446457,182.008713 
	C257.029205,197.212234 271.626831,212.401657 286.156738,227.655579 
	C292.548920,234.366318 298.789429,241.221558 305.474762,248.415756 
	C317.436584,235.625626 328.983490,223.276901 340.536011,210.933472 
	C341.103943,210.326675 341.733124,209.777695 342.313904,209.182434 
	C355.545593,195.621201 368.828430,182.109375 381.989868,168.480316 
	C397.457306,152.463409 412.825775,136.350830 428.224487,120.267624 
	C442.812592,105.031067 457.338989,89.735046 471.983765,74.553200 
	C478.631561,67.661591 484.738525,59.925228 492.408905,54.402866 
	C516.677429,36.930565 549.458130,53.424362 553.228516,79.656075 
	C555.086731,92.583855 552.285950,103.554108 543.504150,112.937187 
	C530.349365,126.992661 517.012268,140.878128 503.700012,154.785431 
	C487.404633,171.809128 471.030609,188.757507 454.736389,205.782257 
	C441.539459,219.570923 428.444580,233.457260 415.242340,247.240799 
	C398.480560,264.740662 381.638855,282.164001 364.885040,299.671448 
	C363.200226,301.432007 361.883667,303.544952 360.434723,305.443909 
	C366.996246,312.501404 373.446960,319.652252 380.127930,326.581085 
	C393.640472,340.594910 407.322937,354.444855 420.852051,368.442871 
	C436.186188,384.308380 451.450287,400.241760 466.705383,416.183411 
	C480.593658,430.696625 494.443085,445.247162 508.283600,459.806000 
	C520.293640,472.439392 532.337891,485.041321 544.237427,497.778290 
	C556.881226,511.312042 557.015686,533.908569 545.365173,548.272949 
	C531.467896,565.407654 507.790863,567.744263 491.873688,555.629456 
	C482.590973,548.564270 475.132141,539.101257 466.866730,530.703308 
	C466.054382,529.877991 465.382355,528.915039 464.574402,528.084778 
	C451.349213,514.495300 438.060455,500.967194 424.892365,487.322632 
	C409.800415,471.684631 394.811798,455.946838 379.781006,440.249817 
	C364.843933,424.650635 349.873077,409.083588 334.988129,393.434814 
	C325.183044,383.126556 315.503815,372.698578 305.408661,361.941040 
	C294.841797,373.172943 284.418152,384.252106 273.995605,395.332245 
	C273.316315,396.054382 272.660034,396.798645 271.968231,397.508484 
	C258.735809,411.086670 245.447418,424.610779 232.277771,438.249573 
	C216.718552,454.363098 201.253891,470.567963 185.761993,486.746429 
	C171.168793,501.986298 156.585403,517.235596 142.014114,532.496399 
	C135.948334,538.849304 129.946777,545.263550 123.877907,551.613403 
	C112.529037,563.487671 92.566658,567.025146 75.983490,557.582336 
	C63.302395,550.361450 54.026814,532.410339 57.726463,515.971863 
	C59.470646,508.222015 62.803104,501.847900 68.221901,496.235687 
	C83.559349,480.350922 98.797874,464.370667 114.069550,448.422424 
	C128.882965,432.952789 143.687653,417.474762 158.499054,402.003174 
	C173.548660,386.282684 188.636169,370.598358 203.643890,354.838013 
	C219.307251,338.389130 234.895233,321.868469 250.636139,305.252533 
	C245.989807,300.238922 241.342178,295.047424 236.504868,290.039093 
	C224.499741,277.609589 212.349594,265.319946 200.365921,252.869965 
	C185.524353,237.450882 170.802231,221.916870 156.009613,206.450577 
	C140.860733,190.611862 125.681396,174.802307 110.529587,158.966415 
	C96.656479,144.466965 82.843658,129.909637 68.930420,115.448883 
	C46.355900,91.986015 57.360523,56.746479 85.618729,48.698307 
	C97.175919,45.406731 107.721146,47.970924 118.176407,53.700249 
z"/>
</svg>